<svg width="181" height="194" xmlns="http://www.w3.org/2000/svg" xmlns:xlink="http://www.w3.org/1999/xlink" xml:space="preserve" overflow="hidden"><defs><clipPath id="clip0"><path d="M319.295 1323.85 372.064 1304.54 390.029 1353.63 337.26 1372.94Z" fill-rule="evenodd" clip-rule="evenodd"/></clipPath><clipPath id="clip1"><path d="M319.295 1323.85 372.064 1304.54 390.029 1353.63 337.26 1372.94Z" fill-rule="evenodd" clip-rule="evenodd"/></clipPath><clipPath id="clip2"><path d="M319.295 1323.85 372.064 1304.54 390.029 1353.63 337.26 1372.94Z" fill-rule="evenodd" clip-rule="evenodd"/></clipPath></defs><g transform="translate(-228 -1179)"><g><g><g><path d="M161.199 147.673C157.629 143.338 153.417 139.574 148.709 136.513 144.575 133.77 140.223 131.369 135.697 129.336L135.697 116.32 161.397 118.815 148.832 99.2076 156.786 101.331 146.959 86.1424 152.845 86.8737 135.347 61.11 117.849 86.8732 123.734 86.1419 113.908 101.331 121.861 99.2076 109.296 118.816 132.197 116.593 132.197 127.877C129.966 126.999 127.473 126.102 124.564 125.129 117.63 122.939 110.491 121.46 103.257 120.715 102.185 120.616 100.992 120.526 99.7499 120.446L99.7499 98.9409 110.04 100.866 112.095 97.6898 98.0001 95.0529 65.4871 101.133 67.633 104.292 96.2501 98.9409 96.2501 120.284C90.2311 120.039 84.2067 120.618 78.3449 122.006 75.5421 122.672 72.8062 123.593 70.1712 124.758 68.3699 125.579 66.7426 126.445 65.2054 127.33 66.4106 127.96 67.5724 128.656 68.7019 129.376 69.6322 128.889 70.5985 128.409 71.6244 127.941 74.067 126.865 76.6028 126.014 79.2003 125.399 86.9901 123.678 95.0128 123.272 102.936 124.198 109.902 124.914 116.777 126.337 123.455 128.446 131.739 130.959 139.612 134.67 146.823 139.46 150.793 142.062 154.395 145.187 157.531 148.75L162.041 148.75ZM116.133 114.635 129.678 93.4982 121.779 95.6066 130.748 81.7438 125.084 82.4469 135.347 67.34 145.609 82.4474 139.946 81.7443 148.914 95.6071 141.015 93.4982 154.56 114.635 135.347 112.77Z" fill="#002664" transform="matrix(1.07738 0 0 1 228 1179)"/><path d="M80.3363 147.799C78.5723 145.26 76.5904 142.879 74.4128 140.684 70.4909 136.671 65.8779 133.399 60.795 131.023 58.3737 130.023 55.8112 129.408 53.2 129.198L53.2 120.126 67.9146 121.554 60.823 111.755 64.8375 112.482 59.1432 103.093 62.6003 103.112 51.4509 86.6968 40.2999 103.112 43.7572 103.093 38.0625 112.483 42.0769 111.756 34.9865 121.555 49.7009 120.127 49.7009 128.996C46.746 128.936 43.7915 129.132 40.8706 129.583 37.7543 130.048 34.6796 130.759 31.675 131.707L31.675 115.728 33.7386 112.412 29.925 112.043 13.1376 113.672 25.2851 94.7199 18.235 96.6013 26.1954 84.2956 21.1505 84.9225 29.925 72.0055 38.6988 84.9221 33.6557 84.2956 41.0673 95.7527 43.2023 92.6099 40.6692 88.6937 45.4586 89.2887 45.678 88.9657 29.925 65.7762 13.9151 89.3488 19.1826 88.6946 10.3642 102.327 17.4692 100.43 6.30123 117.852 28.175 115.729 28.175 133.003C25.5663 134.07 23.0288 135.304 20.5784 136.697 15.5246 139.646 10.9228 143.309 6.91513 147.573 6.58 147.943 5.845 148.75 5.845 148.75L10.6495 148.75C14.1329 145.265 18.0472 142.239 22.2975 139.745 28.1678 136.258 34.675 133.977 41.4381 133.035 45.2986 132.401 54.0196 131.834 59.3704 134.219 64.0357 136.419 68.274 139.428 71.8888 143.107 73.6159 144.885 75.2296 146.77 76.72 148.75L81.0105 148.75C81.0105 148.75 80.6584 148.24 80.3363 147.799ZM50.0138 106.761 45.0834 107.654 49.9949 99.5576 46.9342 99.5751 51.4509 92.9251 55.9659 99.574 52.9052 99.5565 57.8167 107.653 52.8864 106.76 60.5289 117.32 51.4507 116.439 42.3693 117.32Z" fill="#002664" transform="matrix(1.07738 0 0 1 228 1179)"/><path d="M125.523 69.3441 114.691 52.5991 124.194 53.78 98.0001 15.2168 71.8067 53.78 81.3103 52.5991 65.5979 76.8872 78.5163 73.4381 63.0597 97.5591 65.1982 100.708 86.3332 67.7284 73.4696 71.1631 88.3241 48.2012 79.0425 49.3537 98.0001 21.4461 116.958 49.3537 107.678 48.2012 122.507 71.1249C122.521 71.1458 122.512 71.1577 122.488 71.1514L109.668 67.7284 117.898 80.5709 120.037 77.4209 117.484 73.4377 121.935 74.626Z" fill="#002664" transform="matrix(1.07738 0 0 1 228 1179)"/><path d="M34.566 94.7188 38.0625 100.175 40.663 96.3463 34.566 94.7188Z" fill="#002664" transform="matrix(1.07738 0 0 1 228 1179)"/></g></g></g><g clip-path="url(#clip0)"><g clip-path="url(#clip1)"><g clip-path="url(#clip2)"><path d="M22.1992 9.7384C22.1992 11.3112 20.2842 12.5863 17.9219 12.5863 15.5597 12.5863 13.6447 11.3112 13.6447 9.7384 13.6447 8.16556 15.5597 6.89053 17.9219 6.89053 20.2842 6.89053 22.1992 8.16556 22.1992 9.7384Z" fill="#002664" transform="matrix(-0.177697 -0.984085 1.04937 -0.214323 333.662 1346.09)"/><path d="M26.4832 16.3007C26.4832 17.8884 24.8732 19.1754 22.8871 19.1754 20.9011 19.1754 19.291 17.8884 19.291 16.3007 19.291 14.7131 20.9011 13.4261 22.8871 13.4261 24.8732 13.4261 26.4832 14.7131 26.4832 16.3007Z" fill="#002664" transform="matrix(0.0694914 -0.997583 1.0521 0.019215 328.938 1353.15)"/><path d="M13.2375 9.73586C13.2375 12.0975 11.9628 14.012 10.3904 14.012 8.81795 14.012 7.54325 12.0975 7.54325 9.73586 7.54325 7.37421 8.81795 5.45972 10.3904 5.45972 11.9628 5.45972 13.2375 7.37421 13.2375 9.73586Z" fill="#002664" transform="matrix(0.940054 -0.513823 0.499649 0.866529 318.472 1326.05)"/><path d="M8.55763 16.2793C8.55763 18.2627 7.2723 19.8706 5.68676 19.8706 4.10121 19.8706 2.81588 18.2627 2.81588 16.2793 2.81588 14.2959 4.10121 12.688 5.68676 12.688 7.2723 12.688 8.55763 14.2959 8.55763 16.2793Z" fill="#002664" transform="matrix(0.792184 -0.694729 0.69794 0.717994 314.653 1329.17)"/><path d="M14.3527 28.2426C15.1618 28.2353 15.9545 28.4705 16.6287 28.9178 16.8336 29.0456 17.0484 29.1567 17.2712 29.2499 19.0366 30.0385 21.1071 29.2466 21.8957 27.4811 21.979 27.2947 22.0458 27.1013 22.0954 26.9032 22.3813 25.833 22.2691 24.6953 21.7796 23.7016 21.4699 23.0642 21.0193 22.5056 20.4619 22.0681 20.0603 21.7663 19.6949 21.4192 19.3729 21.0336L18.9918 20.5599C18.4066 19.8532 17.9896 19.0229 17.7721 18.1315 17.6129 17.408 17.2718 16.7372 16.7811 16.1822 15.5427 14.7012 13.3382 14.5045 11.8572 15.743 11.698 15.8761 11.551 16.0231 11.4179 16.1822 10.9308 16.7395 10.5901 17.4095 10.427 18.1315 10.2095 19.0229 9.79247 19.8532 9.20731 20.5599L8.83161 21.0336C8.50933 21.4189 8.14398 21.7661 7.74263 22.0681 7.18529 22.5043 6.7362 23.0634 6.43041 23.7016 5.93482 24.6933 5.81863 25.8319 6.10372 26.9032 6.3703 27.9003 7.04977 28.7362 7.97132 29.2009 8.90397 29.6415 9.98113 29.6593 10.9279 29.2499 11.1365 29.167 11.337 29.0649 11.5268 28.945 12.1668 28.536 12.9026 28.3013 13.6612 28.2644Z" fill="#002664" transform="matrix(1.00952 -0.36947 0.343691 0.939083 319.295 1323.85)"/><path d="M46.7498 27.7422C46.7498 29.315 44.8348 30.59 42.4725 30.59 40.1102 30.59 38.1953 29.315 38.1953 27.7422 38.1953 26.1693 40.1102 24.8943 42.4725 24.8943 44.8348 24.8943 46.7498 26.1693 46.7498 27.7422Z" fill="#002664" transform="matrix(-0.177697 -0.984085 1.04937 -0.214323 350.044 1381.93)"/><path d="M51.2647 34.4739C51.2647 36.0615 49.6547 37.3485 47.6686 37.3485 45.6826 37.3485 44.0726 36.0615 44.0726 34.4739 44.0726 32.8862 45.6826 31.5992 47.6686 31.5992 49.6547 31.5992 51.2647 32.8862 51.2647 34.4739Z" fill="#002664" transform="matrix(0.0694914 -0.997583 1.0521 0.019215 339.006 1385.34)"/><path d="M37.7817 27.7349C37.7817 30.0966 36.507 32.0111 34.9346 32.0111 33.3621 32.0111 32.0874 30.0966 32.0874 27.7349 32.0874 25.3733 33.3621 23.4588 34.9346 23.4588 36.507 23.4588 37.7817 25.3733 37.7817 27.7349Z" fill="#002664" transform="matrix(0.940054 -0.513823 0.499649 0.866529 317.319 1330.88)"/><path d="M33.3066 34.4285C33.3066 36.412 32.0212 38.0199 30.4357 38.0199 28.8502 38.0199 27.5648 36.412 27.5648 34.4285 27.5648 32.4451 28.8502 30.8372 30.4357 30.8372 32.0212 30.8372 33.3066 32.4451 33.3066 34.4285Z" fill="#002664" transform="matrix(0.792184 -0.694729 0.69794 0.717994 313.286 1341.15)"/><path d="M38.8547 46.2108C39.6638 46.2035 40.4565 46.4386 41.1307 46.8859 41.3356 47.0137 41.5504 47.1248 41.7732 47.2181 43.5386 48.0067 45.6091 47.2147 46.3977 45.4492 46.481 45.2628 46.5478 45.0694 46.5974 44.8713 46.8833 43.8011 46.7711 42.6635 46.2816 41.6697 45.9719 41.0324 45.5213 40.4738 44.9639 40.0363 44.5623 39.7345 44.1969 39.3873 43.8749 39.0017L43.4938 38.528C42.9086 37.8213 42.4916 36.991 42.2741 36.0996 42.1149 35.3762 41.7738 34.7053 41.2831 34.1503 40.0447 32.6693 37.8402 32.4727 36.3592 33.7111 36.2 33.8442 36.053 33.9912 35.9199 34.1503 35.4328 34.7077 35.0922 35.3776 34.929 36.0996 34.7115 36.991 34.2945 37.8213 33.7093 38.528L33.3336 39.0017C33.0113 39.3871 32.646 39.7342 32.2446 40.0363 31.6873 40.4725 31.2382 41.0315 30.9324 41.6697 30.4368 42.6614 30.3206 43.8 30.6057 44.8713 31.1672 46.7969 33.1834 47.9027 35.1089 47.3412 35.4417 47.2442 35.7588 47.1 36.0506 46.9132 36.6905 46.5041 37.4264 46.2695 38.185 46.2326Z" fill="#002664" transform="matrix(1.00952 -0.36947 0.343691 0.939083 319.295 1323.85)"/></g></g></g></g></svg>