<svg width="37" height="37" xmlns="http://www.w3.org/2000/svg" xmlns:xlink="http://www.w3.org/1999/xlink" xml:space="preserve" overflow="hidden"><g transform="translate(-77 -445)"><path d="M102.052 456.177 99.7396 456.177 99.7396 453.865 102.052 453.865 102.052 456.177ZM102.052 462.344 99.7396 462.344 99.7396 460.031 102.052 460.031 102.052 462.344ZM102.052 468.51 99.7396 468.51 99.7396 466.198 102.052 466.198 102.052 468.51ZM102.052 474.677 99.7396 474.677 99.7396 472.365 102.052 472.365 102.052 474.677ZM96.6562 456.177 94.3438 456.177 94.3438 453.865 96.6562 453.865 96.6562 456.177ZM96.6562 462.344 94.3438 462.344 94.3438 460.031 96.6562 460.031 96.6562 462.344ZM96.6562 468.51 94.3438 468.51 94.3438 466.198 96.6562 466.198 96.6562 468.51ZM96.6562 476.99 94.3438 476.99 94.3438 472.365 96.6562 472.365 96.6562 476.99ZM91.2604 456.177 88.9479 456.177 88.9479 453.865 91.2604 453.865 91.2604 456.177ZM91.2604 462.344 88.9479 462.344 88.9479 460.031 91.2604 460.031 91.2604 462.344ZM91.2604 468.51 88.9479 468.51 88.9479 466.198 91.2604 466.198 91.2604 468.51ZM91.2604 474.677 88.9479 474.677 88.9479 472.365 91.2604 472.365 91.2604 474.677ZM104.75 476.99 104.75 451.167 103.594 451.167 103.594 448.854 102.438 448.854 102.438 447.312 88.5625 447.312 88.5625 448.854 87.4062 448.854 87.4062 451.167 86.25 451.167 86.25 476.99 84.7083 476.99 84.7083 479.688 106.292 479.688 106.292 476.99 104.75 476.99Z" fill="#22272B"/></g></svg>