<svg width="49" height="49" xmlns="http://www.w3.org/2000/svg" xmlns:xlink="http://www.w3.org/1999/xlink" xml:space="preserve" overflow="hidden"><g transform="translate(-307 -442)"><path d="M317.719 469.562 323.971 469.562 323.971 463.394 325.12 464.542 327.118 462.544 323.844 459.27 323.844 454.76 320.781 454.76 320.781 456.208 317.719 453.145 308.32 462.544 310.318 464.542 311.466 463.394 311.466 469.562ZM317.208 468.542 317.208 464.458 318.229 464.458 318.229 468.542 317.208 468.542ZM322.951 468.542 319.25 468.542 319.25 463.438 316.188 463.438 316.188 468.542 312.487 468.542 312.487 462.373 317.719 457.141 322.951 462.373ZM321.802 455.781 322.823 455.781 322.823 458.25 321.802 457.229ZM309.763 462.544 317.719 454.589 325.674 462.544 325.12 463.099 317.719 455.698 310.318 463.099Z" fill="#002664"/><path d="M313.125 463.438 315.167 463.438 315.167 465.479 313.125 465.479Z" fill="#002664"/><path d="M320.271 463.438 322.312 463.438 322.312 465.479 320.271 465.479Z" fill="#002664"/><path d="M350.391 470.073 347.329 470.073 347.329 471.648 344.266 468.586 333.974 478.878 335.972 480.876 337.12 479.725 337.12 486.917 351.412 486.917 351.412 479.727 352.56 480.875 354.558 478.878 350.391 474.711ZM348.349 471.094 349.37 471.094 349.37 473.69 348.349 472.669ZM343.245 485.896 343.245 480.792 345.287 480.792 345.287 485.896 343.245 485.896ZM350.391 485.896 346.308 485.896 346.308 479.771 342.224 479.771 342.224 485.896 338.141 485.896 338.141 478.702 344.257 472.574 350.391 478.706ZM352.56 479.432 344.256 471.127 335.971 479.431 335.417 478.878 344.266 470.029 353.115 478.878Z" fill="#002664"/><path d="M339.156 479.771 341.198 479.771 341.198 481.812 339.156 481.812Z" fill="#002664"/><path d="M347.323 479.771 349.365 479.771 349.365 481.812 347.323 481.812Z" fill="#002664"/><path d="M332.01 451.399 332.01 456.292 341.198 456.292 341.198 451.399 341.858 452.059 342.58 451.337 340.688 449.445 340.688 446.594 339.667 446.594 339.667 448.424 336.604 445.362 330.629 451.337 331.35 452.059ZM336.732 455.271 336.094 455.271 336.094 452.208 337.115 452.208 337.115 455.271ZM340.177 450.378 340.177 455.271 338.135 455.271 338.135 451.188 335.073 451.188 335.073 455.271 333.031 455.271 333.031 450.378 336.604 446.805Z" fill="#002664"/><path d="M354.469 454.099 351.406 454.099 351.307 454.109C341.772 456.024 323.247 466.616 313.56 486.917L314.692 486.917C324.255 467.273 342.06 457.009 351.347 455.12L351.741 455.12C351.744 455.121 351.745 455.124 351.744 455.127 351.744 455.128 351.743 455.129 351.741 455.13 339.532 460.48 330.243 472.855 328.044 486.917L329.078 486.917C331.419 472.319 341.573 459.614 354.636 455.092 354.902 455 355.043 454.709 354.951 454.443 354.88 454.237 354.686 454.099 354.469 454.099Z" fill="#002664"/></g></svg>