<svg width="56" height="57" xmlns="http://www.w3.org/2000/svg" xmlns:xlink="http://www.w3.org/1999/xlink" xml:space="preserve" overflow="hidden"><g transform="translate(-46 -168)"><path d="M121.792 297.807 88.2983 264.316 88.2983 259.307 82.4649 259.307 82.4649 265.141 84.7983 265.141 84.7983 297.807 82.4649 297.807 82.4649 303.641 88.2983 303.641 88.2983 301.307 120.965 301.307 120.965 303.641 126.798 303.641 126.798 297.807ZM83.6316 260.474 87.1316 260.474 87.1316 263.974 83.6316 263.974ZM87.1316 302.474 83.6316 302.474 83.6316 298.974 87.1316 298.974ZM85.9649 297.807 85.9649 289.641 96.4649 289.641 96.4649 300.141 88.2983 300.141 88.2983 297.807ZM97.6316 300.141 97.6316 288.474 85.9649 288.474 85.9649 265.141 87.4735 265.141 120.965 298.629 120.965 300.141ZM125.632 302.474 122.132 302.474 122.132 298.974 125.632 298.974Z" fill="#002664" transform="matrix(1 0 0 1.01786 -30.6316 -90)"/></g></svg>