<svg width="57" height="56" xmlns="http://www.w3.org/2000/svg" xmlns:xlink="http://www.w3.org/1999/xlink" xml:space="preserve" overflow="hidden"><g transform="translate(-307 -247)"><path d="M38.5012 34.9574 38.5012 33.7907 34.4178 33.7907 34.4178 40.2074 33.2512 40.2074 33.2512 41.3741 44.3345 41.3741 44.3345 21.5407 39.4106 21.5407 38.2439 22.7074 43.1678 22.7074 43.1678 28.5407 33.8333 28.5407 33.8333 29.7074 43.1678 29.7074 43.1678 33.7907 41.4178 33.7907 41.4178 34.9574 43.1678 34.9574 43.1678 40.2074 35.5845 40.2074 35.5845 34.9574 38.5012 34.9574Z" fill="#002664" transform="matrix(1.01786 0 0 1 307 247)"/><path d="M46.4106 14.5407 45.2439 15.7074 49.5833 15.7074 49.5833 46.6241 12.1858 46.6241C12.8264 45.9977 13.2426 45.1776 13.37 44.2907L13.4167 43.7074 13.4167 15.7074 32.9455 15.7074 34.1122 14.5407 13.4167 14.5407 13.4167 12.7907C13.4167 10.5356 11.5885 8.70742 9.33333 8.70742 7.07817 8.70742 5.25 10.5356 5.25 12.7907L5.25 43.7074 5.29667 44.2907C5.57551 46.1983 7.1505 47.651 9.07433 47.775L50.75 47.7907 50.75 14.5407ZM6.41667 12.7907C6.41667 11.1799 7.72252 9.87408 9.33333 9.87408 10.9441 9.87408 12.25 11.1799 12.25 12.7907L12.25 40.8549C10.6814 39.2441 8.10396 39.2099 6.49314 40.7784 6.4673 40.8036 6.44181 40.8291 6.41667 40.8549ZM6.41667 43.7074C6.41667 42.0966 7.72252 40.7907 9.33333 40.7907 10.9441 40.7907 12.25 42.0966 12.25 43.7074 12.25 45.3182 10.9441 46.6241 9.33333 46.6241 7.72327 46.6222 6.41859 45.3175 6.41667 43.7074Z" fill="#002664" transform="matrix(1.01786 0 0 1 307 247)"/><path d="M25.9583 22.7074 27.1227 21.5407 18.6667 21.5407 18.6667 41.3741 29.7512 41.3741 29.7512 40.2074 28.5845 40.2074 28.5845 33.7907 24.5012 33.7907 24.5012 34.9574 27.4178 34.9574 27.4178 40.2074 19.8333 40.2074 19.8333 34.9574 21.5845 34.9574 21.5845 33.7907 19.8333 33.7907 19.8333 29.75 23.4226 29.75 23.8093 28.5833 19.8333 28.5833 19.8333 22.7074 25.9583 22.7074Z" fill="#002664" transform="matrix(1.01786 0 0 1 307 247)"/><path d="M25.375 29.4175 30.87 27.6051 48.0462 10.3728C48.4983 9.97564 48.5428 9.28713 48.1456 8.83499 48.1232 8.8095 48.0996 8.785 48.0748 8.76167L46.0332 6.72C45.5898 6.26722 44.8633 6.25952 44.4106 6.70285 44.4048 6.70851 44.3991 6.71422 44.3934 6.72L27.1886 23.9517ZM45.213 7.5495 47.2156 9.55325 45.4218 11.347 43.4181 9.34325ZM42.3984 10.3635 42.5932 10.1681 44.6186 12.1917 44.4162 12.4087 31.8016 25.025C31.5779 24.0151 30.7851 23.2289 29.7733 23.0137ZM28.2094 24.5805 28.448 24.3413C28.6831 24.1985 28.9528 24.1222 29.2279 24.1208 29.6185 24.1209 29.9928 24.2777 30.2668 24.556 30.7639 25.0381 30.8404 25.8086 30.4477 26.3789L30.2423 26.5842 27.8057 27.3881 27.4097 26.992Z" fill="#002664" transform="matrix(1.01786 0 0 1 307 247)"/></g></svg>