<svg width="47" height="47" xmlns="http://www.w3.org/2000/svg" xmlns:xlink="http://www.w3.org/1999/xlink" xml:space="preserve" overflow="hidden"><g transform="translate(-311 -347)"><path d="M349.677 364.135C349.947 364.135 350.167 363.916 350.167 363.646L350.167 361.198C350.167 361.006 350.055 360.831 349.88 360.752L339.109 355.856C339.045 355.827 338.976 355.812 338.906 355.812L338.64 355.812 338.414 353.799C338.404 353.718 338.375 353.641 338.328 353.574L334.901 348.678C334.746 348.456 334.441 348.403 334.219 348.558 334.172 348.59 334.132 348.631 334.099 348.678L330.672 353.574C330.625 353.641 330.596 353.718 330.586 353.799L330.36 355.812 330.094 355.812C330.024 355.812 329.955 355.827 329.891 355.857L319.12 360.752C318.946 360.832 318.833 361.006 318.833 361.198L318.833 363.646C318.833 363.916 319.053 364.135 319.323 364.135 319.593 364.135 319.812 363.916 319.812 363.646L319.812 361.688 329.702 361.688 329.105 366.985 319.12 371.523C318.946 371.603 318.833 371.777 318.833 371.969L318.833 374.417C318.833 374.687 319.053 374.906 319.323 374.906 319.593 374.906 319.812 374.687 319.812 374.417L319.812 372.458 328.49 372.458 328.147 375.52 321.647 391.783C321.547 392.034 321.669 392.319 321.92 392.419 321.978 392.442 322.039 392.454 322.101 392.454 322.167 392.454 322.233 392.44 322.293 392.415L334.474 387.221 346.726 392.45C346.975 392.556 347.263 392.441 347.369 392.192 347.42 392.073 347.421 391.938 347.373 391.818L340.854 375.52 340.51 372.458 349.188 372.458 349.188 374.417C349.188 374.687 349.407 374.906 349.677 374.906 349.947 374.906 350.167 374.687 350.167 374.417L350.167 371.969C350.167 371.777 350.054 371.603 349.88 371.523L339.895 366.985 339.298 361.688 349.188 361.688 349.188 363.646C349.188 363.916 349.407 364.135 349.677 364.135ZM331.545 354.033 334.496 349.818C334.497 349.816 334.5 349.815 334.502 349.816 334.503 349.817 334.503 349.817 334.504 349.818L337.455 354.033 337.654 355.812 331.346 355.812ZM337.765 356.792 338.205 360.708 330.795 360.708 331.236 356.792ZM321.605 360.708C321.593 360.708 321.592 360.704 321.605 360.699L330.2 356.792 330.249 356.792 329.808 360.708ZM321.605 371.47 328.978 368.118 328.6 371.479 321.605 371.479C321.593 371.479 321.592 371.475 321.603 371.47ZM330.018 367.646 330.2 367.562 338.8 367.562 338.984 367.646 339.415 371.479 329.585 371.479ZM340.201 376.518 342.185 381.479 335.674 378.553ZM342.333 382.62C342.432 382.666 342.545 382.676 342.65 382.647L342.664 382.681C342.638 382.684 342.612 382.689 342.587 382.697L334.474 386.156 326.369 382.697C326.358 382.694 326.347 382.692 326.335 382.69L326.35 382.653C326.374 382.658 326.398 382.661 326.422 382.663 326.491 382.663 326.559 382.648 326.623 382.62L334.478 379.09ZM326.829 381.454 328.795 376.536 333.283 378.553ZM323.004 391.047C322.998 391.047 322.995 391.047 322.998 391.04L325.975 383.591C325.979 383.591 325.981 383.596 325.985 383.598L333.227 386.688ZM335.722 386.69 342.97 383.598C342.987 383.588 343.003 383.577 343.019 383.566L346.023 391.075C346.023 391.082 346.023 391.085 346.016 391.082ZM339.877 375.592 334.478 378.016 329.121 375.608 329.475 372.458 339.525 372.458ZM347.395 371.479 340.4 371.479 340.022 368.118 347.397 371.47C347.408 371.475 347.407 371.479 347.395 371.479ZM338.865 366.583 330.135 366.583 330.686 361.688 338.314 361.688ZM338.75 356.792 338.799 356.792 347.395 360.699C347.406 360.704 347.405 360.708 347.395 360.708L339.19 360.708Z" fill="#002664"/></g></svg>