<svg width="49" height="48" xmlns="http://www.w3.org/2000/svg" xmlns:xlink="http://www.w3.org/1999/xlink" xml:space="preserve" overflow="hidden"><g transform="translate(-70 -442)"><path d="M4.5 10.5 7 10.5 7 11.5 4.5 11.5Z" fill="#002664" transform="matrix(1.02083 0 0 1 70 442)"/><path d="M7.92 8.67 6.18 6.895 6.89 6.17 8.625 7.945 7.92 8.67Z" fill="#002664" transform="matrix(1.02083 0 0 1 70 442)"/><path d="M10.5 4.5 11.5 4.5 11.5 7 10.5 7Z" fill="#002664" transform="matrix(1.02083 0 0 1 70 442)"/><path d="M15 10.5 17.5 10.5 17.5 11.5 15 11.5Z" fill="#002664" transform="matrix(1.02083 0 0 1 70 442)"/><path d="M14.08 8.67 15.82 6.895 15.11 6.17 13.375 7.945 14.08 8.67Z" fill="#002664" transform="matrix(1.02083 0 0 1 70 442)"/><path d="M7.92 13.385 6.18 15.165 6.89 15.885 8.625 14.11 7.92 13.385Z" fill="#002664" transform="matrix(1.02083 0 0 1 70 442)"/><path d="M10.5 15 11.5 15 11.5 17.5 10.5 17.5Z" fill="#002664" transform="matrix(1.02083 0 0 1 70 442)"/><path d="M14.08 13.385 15.82 15.165 15.11 15.885 13.375 14.11 14.08 13.385Z" fill="#002664" transform="matrix(1.02083 0 0 1 70 442)"/><path d="M11 9.06C12.1046 9.06 13 9.95545 13 11.06 13 12.1645 12.1046 13.06 11 13.06 9.89545 13.06 9 12.1645 9 11.06 9 9.95545 9.89545 9.06 11 9.06M11 8.06C9.34315 8.06 8 9.40315 8 11.06 8 12.7169 9.34315 14.06 11 14.06 12.6568 14.06 14 12.7169 14 11.06 14 9.40315 12.6568 8.06 11 8.06Z" fill="#002664" transform="matrix(1.02083 0 0 1 70 442)"/><path d="M32.386 13.3295 22.514 24.2675 17.1915 19.608 2.5 30.5175 2.5 31.763 17.1385 20.892 25.2615 28C25.2635 28.0021 25.2635 28.0054 25.2615 28.0075L17.9 34.4955C17.2786 35.0333 17.2108 35.973 17.7486 36.5944 17.7637 36.6118 17.7792 36.6288 17.795 36.6455L23.494 43 24.837 43 18.5205 35.9545C18.3361 35.749 18.3532 35.4328 18.5587 35.2484 18.5598 35.2475 18.5609 35.2464 18.562 35.2455L25.927 28.753C26.3412 28.3878 26.381 27.7558 26.0158 27.3416 25.9865 27.3083 25.955 27.2771 25.9215 27.248L25.5715 26.945 25.569 26.945 23.265 24.928 23.5235 24.6415 27.33 28.1515C27.5324 28.3393 27.5443 28.6557 27.3564 28.8581 27.3479 28.8673 27.3391 28.8761 27.33 28.8845L21.1 34.7C20.6964 35.077 20.6749 35.7098 21.0519 36.1134 21.101 36.166 21.1558 36.2132 21.215 36.254L30.9965 43 32.7575 43 21.7885 35.4325C21.7863 35.4304 21.7862 35.4269 21.7882 35.4247 21.7883 35.4246 21.7884 35.4245 21.7885 35.4245L28.0155 29.6135C28.6213 29.0485 28.6544 28.0993 28.0895 27.4935 28.0637 27.4658 28.0368 27.4391 28.009 27.4135L24.1945 23.9 26.336 21.5275 30.914 19.487 32.505 20.895 34.097 19.483 39.483 21.84 45.5 27.8595 45.5 26.443ZM33.9125 18.3105 32.505 19.5605 31.0955 18.3105 27.9895 19.695 32.4235 14.7825 37.5415 19.9Z" fill="#002664" fill-opacity="0.9" transform="matrix(1.02083 0 0 1 70 442)"/></g></svg>