<svg width="37" height="37" xmlns="http://www.w3.org/2000/svg" xmlns:xlink="http://www.w3.org/1999/xlink" xml:space="preserve" overflow="hidden"><g transform="translate(-84 -600)"><path d="M114.371 608.244 115.743 606.882C116.042 606.619 116.071 606.164 115.809 605.866 115.794 605.849 115.779 605.833 115.762 605.817L114.413 604.468C114.121 604.169 113.641 604.163 113.342 604.456 113.338 604.46 113.334 604.464 113.33 604.468L111.957 605.831Z" fill="#22272B"/><path d="M109.438 623.318 109.438 622.161 106.548 622.161 106.548 626.401 105.97 626.401 105.97 627.557 113.485 627.557 113.485 614.068 110.232 614.068 109.076 615.224 112.329 615.224 112.329 618.693 106.354 618.693 106.354 619.849 112.329 619.849 112.329 622.161 111.365 622.161 111.365 623.318 112.329 623.318 112.329 626.401 107.704 626.401 107.704 623.318 109.438 623.318Z" fill="#22272B"/><path d="M115.435 608.865 113.122 611.177 115.99 611.177 115.99 630.062 93.4331 630.062C93.5224 629.813 93.5826 629.555 93.6127 629.292L93.6354 628.906 93.6354 611.177 104.997 611.177 107.306 608.865 93.6354 608.865 93.6354 608.479C93.6354 606.563 92.0824 605.01 90.1667 605.01 88.2509 605.01 86.6979 606.563 86.6979 608.479L86.6979 628.906 86.7207 629.292C86.9124 630.981 88.299 632.282 89.9967 632.367L89.9967 632.375 118.302 632.375 118.302 608.865ZM90.1667 630.062C89.5281 630.062 89.0104 629.545 89.0104 628.906 89.0104 628.268 89.5281 627.75 90.1667 627.75 90.8053 627.75 91.3229 628.268 91.3229 628.906 91.3229 629.545 90.8053 630.062 90.1667 630.062ZM91.3229 625.64C90.5757 625.37 89.7577 625.37 89.0104 625.64L89.0104 608.479C89.0104 607.841 89.5281 607.323 90.1667 607.323 90.8053 607.323 91.3229 607.841 91.3229 608.479Z" fill="#22272B"/><path d="M100.959 615.224 102.113 614.068 96.1406 614.068 96.1406 627.557 103.657 627.557 103.657 626.401 103.079 626.401 103.079 622.161 100.188 622.161 100.188 623.318 101.923 623.318 101.923 626.401 97.2969 626.401 97.2969 623.318 98.2612 623.318 98.2612 622.161 97.2969 622.161 97.2969 619.849 99.4209 619.849 99.8044 618.693 97.2969 618.693 97.2969 615.224 100.959 615.224Z" fill="#22272B"/><path d="M111.419 606.38 101.964 615.853 100.766 619.464 104.396 618.266 113.851 608.811ZM103.998 617.602 102.382 618.135 102.097 617.849 102.629 616.234C103.015 615.868 103.622 615.877 103.998 616.253 104.37 616.614 104.379 617.21 104.017 617.582 104.011 617.589 104.004 617.596 103.998 617.602Z" fill="#22272B"/></g></svg>