<svg width="37" height="37" xmlns="http://www.w3.org/2000/svg" xmlns:xlink="http://www.w3.org/1999/xlink" xml:space="preserve" overflow="hidden"><g transform="translate(-77 -237)"><path d="M85.8646 268.604 85.8646 242.396 95.5 242.396 95.5 250.49 105.135 250.49 105.135 268.604 85.8646 268.604ZM97.8125 243.359 102.63 248.177 97.8125 248.177 97.8125 243.359ZM97.8125 240.083 83.5521 240.083 83.5521 270.917 107.448 270.917 107.448 248.562 97.8125 240.083Z" fill="#22272B"/><path d="M88.1771 254.344 102.823 254.344 102.823 255.885 88.1771 255.885Z" fill="#22272B"/><path d="M88.1771 251.26 93.1875 251.26 93.1875 252.802 88.1771 252.802Z" fill="#22272B"/><path d="M88.1771 257.427 102.823 257.427 102.823 258.969 88.1771 258.969Z" fill="#22272B"/><path d="M88.1771 260.51 102.823 260.51 102.823 262.052 88.1771 262.052Z" fill="#22272B"/><path d="M88.1771 263.594 102.823 263.594 102.823 265.135 88.1771 265.135Z" fill="#22272B"/></g></svg>